<svg viewBox="0 0 218.47 156.13" xmlns="http://www.w3.org/2000/svg" xmlns:xlink="http://www.w3.org/1999/xlink"><linearGradient id="a" gradientTransform="matrix(191.47 0 0 -101.04 154864.38 73868.6)" gradientUnits="userSpaceOnUse" x1="-808.37" x2="-808.02" y1="731.02" y2="730.24"><stop offset=".05" stop-color="#167d2e"/><stop offset=".36" stop-color="#388b2f"/><stop offset=".78" stop-color="#609c32"/><stop offset="1" stop-color="#70a333"/></linearGradient><linearGradient id="b" gradientTransform="matrix(27 0 0 -89.86 21633.72 65749.65)" x1="-801.17" x2="-799.9" xlink:href="#a" y1="730.75" y2="730.07"/><g fill="#167d2e"><path d="m31.51 111.58h7.28v38.48h-7.28z"/><path d="m57.25 120.79a11.37 11.37 0 0 1 9.51 4.57v-4.11h7.34v28.81h-7.34v-4.21a11.34 11.34 0 0 1 -9.56 4.68c-7.28 0-13.11-6-13.11-15s5.83-14.74 13.16-14.74zm1.87 6.39c-3.9 0-7.59 2.91-7.59 8.37s3.69 8.58 7.59 8.58 7.64-3 7.64-8.47-3.63-8.48-7.64-8.48z"/><path d="m101.4 134.15c0-4.63-2.55-7.12-6.4-7.12s-6.5 2.49-6.5 7.12v15.91h-7.28v-28.81h7.28v3.59a10.76 10.76 0 0 1 8.68-4c6.71 0 11.5 4.37 11.5 12.32v16.9h-7.28z"/><path d="m116.74 127.23h-3.44v-6h3.44v-7.12h7.33v7.12h6.45v6h-6.45v13.94c0 1.92.78 2.76 3.07 2.76h3.38v6.13h-4.58c-5.51 0-9.2-2.34-9.2-8.94z"/></g><path d="m135 113.56a4.48 4.48 0 1 1 4.47 4.26 4.27 4.27 0 0 1 -4.47-4.26zm.78 7.69h7.28v28.81h-7.28z" fill="#b0d25a"/><path d="m170.4 134.15c0-4.63-2.55-7.12-6.4-7.12s-6.5 2.49-6.5 7.12v15.91h-7.28v-28.81h7.28v3.59a10.77 10.77 0 0 1 8.69-4c6.71 0 11.49 4.37 11.49 12.32v16.9h-7.28z" fill="#b0d25a"/><path d="m27 64.72c24.91-27.89 83.2-53.45 145.5-41.87 2.52.38-96.09-4-145.5 55.71 95.39 66.82 162.13-36.56 162.13-36.56 16.12-22.86 29.34-21.56 29.34-21.56-107.69-50.99-177.65 4.79-191.47 44.28z" fill="url(#a)"/><path d="m27 66.27c-2.46 6.34-23.22 21.23-27 82.65a10.11 10.11 0 0 0 10 7.2s-12.17-43.42 17-76c-1.75-3.51-1.13-8.8 0-13.85z" fill="url(#b)"/></svg>