<svg viewBox="0 0 218.47 156.13" xmlns="http://www.w3.org/2000/svg"><g fill="#fff"><path d="m31.51 111.59h7.28v38.48h-7.28z"/><path d="m57.25 120.79a11.38 11.38 0 0 1 9.51 4.58v-4.11h7.34v28.81h-7.34v-4.21a11.34 11.34 0 0 1 -9.56 4.68c-7.28 0-13.11-6-13.11-15s5.83-14.75 13.16-14.75zm1.87 6.4c-3.9 0-7.59 2.91-7.59 8.37s3.69 8.58 7.59 8.58 7.64-3 7.64-8.47-3.63-8.48-7.64-8.48z"/><path d="m101.4 134.16c0-4.63-2.55-7.12-6.4-7.12s-6.5 2.49-6.5 7.12v15.91h-7.28v-28.81h7.28v3.59a10.76 10.76 0 0 1 8.68-4c6.71 0 11.5 4.36 11.5 12.32v16.9h-7.28z"/><path d="m116.74 127.24h-3.44v-6h3.44v-7.12h7.33v7.12h6.45v6h-6.45v13.94c0 1.92.78 2.76 3.07 2.76h3.38v6.13h-4.58c-5.51 0-9.2-2.34-9.2-8.94z"/><path d="m135 113.57a4.48 4.48 0 1 1 4.47 4.26 4.27 4.27 0 0 1 -4.47-4.26zm.78 7.69h7.28v28.81h-7.28z"/><path d="m170.4 134.16c0-4.63-2.55-7.12-6.4-7.12s-6.5 2.49-6.5 7.12v15.91h-7.28v-28.81h7.28v3.59a10.77 10.77 0 0 1 8.69-4c6.71 0 11.49 4.36 11.49 12.32v16.9h-7.28z"/><path d="m27 64.72c24.91-27.89 83.2-53.45 145.5-41.87 2.52.38-96.09-4-145.5 55.71 95.39 66.82 162.13-36.56 162.13-36.56 16.12-22.86 29.34-21.56 29.34-21.56-107.69-50.99-177.65 4.79-191.47 44.28z"/><path d="m27 66.27c-2.46 6.34-23.22 21.23-27 82.65a10.11 10.11 0 0 0 10 7.2s-12.17-43.42 17-76c-1.75-3.51-1.13-8.8 0-13.85z"/></g></svg>